<?xml version="1.0" standalone="no"?>
<!DOCTYPE svg PUBLIC "-//W3C//DTD SVG 20010904//EN"
 "http://www.w3.org/TR/2001/REC-SVG-20010904/DTD/svg10.dtd">
<svg version="1.0" xmlns="http://www.w3.org/2000/svg"
 width="400.000000pt" height="400.000000pt" viewBox="0 0 400.000000 400.000000"
 preserveAspectRatio="xMidYMid meet">

<g transform="translate(0.000000,400.000000) scale(0.100000,-0.100000)"
fill="#000000" stroke="none">
<path d="M0 2000 l0 -2000 2000 0 2000 0 0 2000 0 2000 -2000 0 -2000 0 0
-2000z m990 1245 c0 -69 -3 -85 -15 -85 -12 0 -15 16 -15 85 0 69 3 85 15 85
12 0 15 -16 15 -85z m40 0 c0 -69 -3 -85 -15 -85 -12 0 -15 16 -15 85 0 69 3
85 15 85 12 0 15 -16 15 -85z m40 0 c0 -69 -3 -85 -15 -85 -12 0 -15 16 -15
85 0 69 3 85 15 85 12 0 15 -16 15 -85z m40 0 c0 -69 -3 -85 -15 -85 -12 0
-15 16 -15 85 0 69 3 85 15 85 12 0 15 -16 15 -85z m40 0 c0 -69 -3 -85 -15
-85 -12 0 -15 16 -15 85 0 69 3 85 15 85 12 0 15 -16 15 -85z m40 -300 c0
-336 -2 -385 -15 -385 -13 0 -15 49 -15 385 0 336 2 385 15 385 13 0 15 -49
15 -385z m40 0 c0 -336 -2 -385 -15 -385 -13 0 -15 49 -15 385 0 336 2 385 15
385 13 0 15 -49 15 -385z m40 0 c0 -336 -2 -385 -15 -385 -13 0 -15 49 -15
385 0 336 2 385 15 385 13 0 15 -49 15 -385z m40 0 c0 -336 -2 -385 -15 -385
-13 0 -15 49 -15 385 0 336 2 385 15 385 13 0 15 -49 15 -385z m40 280 c0 -87
-3 -105 -15 -105 -12 0 -15 18 -15 105 0 87 3 105 15 105 12 0 15 -18 15 -105z
m40 20 c0 -69 -3 -85 -15 -85 -12 0 -15 16 -15 85 0 69 3 85 15 85 12 0 15
-16 15 -85z m40 0 c0 -69 -3 -85 -15 -85 -12 0 -15 16 -15 85 0 69 3 85 15 85
12 0 15 -16 15 -85z m40 0 c0 -69 -3 -85 -15 -85 -12 0 -15 16 -15 85 0 69 3
85 15 85 12 0 15 -16 15 -85z m40 0 c0 -69 -3 -85 -15 -85 -12 0 -15 16 -15
85 0 69 3 85 15 85 12 0 15 -16 15 -85z m40 0 c0 -69 -3 -85 -15 -85 -12 0
-15 16 -15 85 0 69 3 85 15 85 12 0 15 -16 15 -85z m40 0 c0 -69 -3 -85 -15
-85 -12 0 -15 16 -15 85 0 69 3 85 15 85 12 0 15 -16 15 -85z m40 0 c0 -69 -3
-85 -15 -85 -12 0 -15 16 -15 85 0 69 3 85 15 85 12 0 15 -16 15 -85z m40 0
c0 -69 -3 -85 -15 -85 -12 0 -15 16 -15 85 0 69 3 85 15 85 12 0 15 -16 15
-85z m40 0 c0 -69 -3 -85 -15 -85 -12 0 -15 16 -15 85 0 69 3 85 15 85 12 0
15 -16 15 -85z m40 0 c0 -69 -3 -85 -15 -85 -12 0 -15 16 -15 85 0 69 3 85 15
85 12 0 15 -16 15 -85z m40 0 c0 -69 -3 -85 -15 -85 -12 0 -15 16 -15 85 0 69
3 85 15 85 12 0 15 -16 15 -85z m40 0 c0 -69 -3 -85 -15 -85 -12 0 -15 16 -15
85 0 69 3 85 15 85 12 0 15 -16 15 -85z m40 0 c0 -69 -3 -85 -15 -85 -12 0
-15 16 -15 85 0 69 3 85 15 85 12 0 15 -16 15 -85z m40 0 c0 -69 -3 -85 -15
-85 -12 0 -15 16 -15 85 0 69 3 85 15 85 12 0 15 -16 15 -85z m40 0 c0 -69 -3
-85 -15 -85 -12 0 -15 16 -15 85 0 69 3 85 15 85 12 0 15 -16 15 -85z m40 0
c0 -69 -3 -85 -15 -85 -12 0 -15 16 -15 85 0 69 3 85 15 85 12 0 15 -16 15
-85z m40 0 c0 -69 -3 -85 -15 -85 -12 0 -15 16 -15 85 0 69 3 85 15 85 12 0
15 -16 15 -85z m40 0 c0 -69 -3 -85 -15 -85 -12 0 -15 16 -15 85 0 69 3 85 15
85 12 0 15 -16 15 -85z m40 0 c0 -69 -3 -85 -15 -85 -12 0 -15 16 -15 85 0 69
3 85 15 85 12 0 15 -16 15 -85z m40 0 c0 -69 -3 -85 -15 -85 -12 0 -15 16 -15
85 0 69 3 85 15 85 12 0 15 -16 15 -85z m40 0 c0 -69 -3 -85 -15 -85 -12 0
-15 16 -15 85 0 69 3 85 15 85 12 0 15 -16 15 -85z m40 0 c0 -69 -3 -85 -15
-85 -12 0 -15 16 -15 85 0 69 3 85 15 85 12 0 15 -16 15 -85z m40 0 c0 -69 -3
-85 -15 -85 -12 0 -15 16 -15 85 0 69 3 85 15 85 12 0 15 -16 15 -85z m40 0
c0 -69 -3 -85 -15 -85 -12 0 -15 16 -15 85 0 69 3 85 15 85 12 0 15 -16 15
-85z m40 0 c0 -69 -3 -85 -15 -85 -12 0 -15 16 -15 85 0 69 3 85 15 85 12 0
15 -16 15 -85z m40 0 c0 -69 -3 -85 -15 -85 -12 0 -15 16 -15 85 0 69 3 85 15
85 12 0 15 -16 15 -85z m40 0 c0 -69 -3 -85 -15 -85 -12 0 -15 16 -15 85 0 69
3 85 15 85 12 0 15 -16 15 -85z m40 0 c0 -69 -3 -85 -15 -85 -12 0 -15 16 -15
85 0 69 3 85 15 85 12 0 15 -16 15 -85z m40 0 c0 -69 -3 -85 -15 -85 -12 0
-15 16 -15 85 0 69 3 85 15 85 12 0 15 -16 15 -85z m40 0 c0 -69 -3 -85 -15
-85 -12 0 -15 16 -15 85 0 69 3 85 15 85 12 0 15 -16 15 -85z m40 0 c0 -69 -3
-85 -15 -85 -12 0 -15 16 -15 85 0 69 3 85 15 85 12 0 15 -16 15 -85z m40 0
c0 -69 -3 -85 -15 -85 -12 0 -15 16 -15 85 0 69 3 85 15 85 12 0 15 -16 15
-85z m40 0 c0 -69 -3 -85 -15 -85 -12 0 -15 16 -15 85 0 69 3 85 15 85 12 0
15 -16 15 -85z m40 -300 c0 -336 -2 -385 -15 -385 -13 0 -15 49 -15 385 0 336
2 385 15 385 13 0 15 -49 15 -385z m40 0 c0 -336 -2 -385 -15 -385 -13 0 -15
49 -15 385 0 336 2 385 15 385 13 0 15 -49 15 -385z m40 0 c0 -336 -2 -385
-15 -385 -13 0 -15 49 -15 385 0 336 2 385 15 385 13 0 15 -49 15 -385z m40 0
c0 -336 -2 -385 -15 -385 -13 0 -15 49 -15 385 0 336 2 385 15 385 13 0 15
-49 15 -385z m40 0 c0 -336 -2 -385 -15 -385 -13 0 -15 49 -15 385 0 336 2
385 15 385 13 0 15 -49 15 -385z m40 300 c0 -69 -3 -85 -15 -85 -12 0 -15 16
-15 85 0 69 3 85 15 85 12 0 15 -16 15 -85z m40 0 c0 -69 -3 -85 -15 -85 -12
0 -15 16 -15 85 0 69 3 85 15 85 12 0 15 -16 15 -85z m40 0 c0 -69 -3 -85 -15
-85 -12 0 -15 16 -15 85 0 69 3 85 15 85 12 0 15 -16 15 -85z m40 0 c0 -69 -3
-85 -15 -85 -12 0 -15 16 -15 85 0 69 3 85 15 85 12 0 15 -16 15 -85z m40 0
c0 -69 -3 -85 -15 -85 -12 0 -15 16 -15 85 0 69 3 85 15 85 12 0 15 -16 15
-85z m-1680 -780 c0 -87 -3 -105 -15 -105 -12 0 -15 18 -15 105 0 87 3 105 15
105 12 0 15 -18 15 -105z m40 0 c0 -87 -3 -105 -15 -105 -12 0 -15 18 -15 105
0 87 3 105 15 105 12 0 15 -18 15 -105z m40 0 c0 -87 -3 -105 -15 -105 -12 0
-15 18 -15 105 0 87 3 105 15 105 12 0 15 -18 15 -105z m40 0 c0 -87 -3 -105
-15 -105 -12 0 -15 18 -15 105 0 87 3 105 15 105 12 0 15 -18 15 -105z m240 0
c0 -87 -3 -105 -15 -105 -12 0 -15 18 -15 105 0 87 3 105 15 105 12 0 15 -18
15 -105z m40 0 c0 -87 -3 -105 -15 -105 -12 0 -15 18 -15 105 0 87 3 105 15
105 12 0 15 -18 15 -105z m40 0 c0 -87 -3 -105 -15 -105 -12 0 -15 18 -15 105
0 87 3 105 15 105 12 0 15 -18 15 -105z m40 0 c0 -87 -3 -105 -15 -105 -12 0
-15 18 -15 105 0 87 3 105 15 105 12 0 15 -18 15 -105z m40 0 c0 -87 -3 -105
-15 -105 -12 0 -15 18 -15 105 0 87 3 105 15 105 12 0 15 -18 15 -105z m40
-100 c0 -176 -2 -205 -15 -205 -13 0 -15 29 -15 205 0 176 2 205 15 205 13 0
15 -29 15 -205z m40 0 c0 -176 -2 -205 -15 -205 -13 0 -15 29 -15 205 0 176 2
205 15 205 13 0 15 -29 15 -205z m40 0 c0 -176 -2 -205 -15 -205 -13 0 -15 29
-15 205 0 176 2 205 15 205 13 0 15 -29 15 -205z m40 0 c0 -176 -2 -205 -15
-205 -13 0 -15 29 -15 205 0 176 2 205 15 205 13 0 15 -29 15 -205z m40 0 c0
-176 -2 -205 -15 -205 -13 0 -15 29 -15 205 0 176 2 205 15 205 13 0 15 -29
15 -205z m40 100 c0 -87 -3 -105 -15 -105 -12 0 -15 18 -15 105 0 87 3 105 15
105 12 0 15 -18 15 -105z m40 0 c0 -87 -3 -105 -15 -105 -12 0 -15 18 -15 105
0 87 3 105 15 105 12 0 15 -18 15 -105z m40 0 c0 -87 -3 -105 -15 -105 -12 0
-15 18 -15 105 0 87 3 105 15 105 12 0 15 -18 15 -105z m40 0 c0 -87 -3 -105
-15 -105 -12 0 -15 18 -15 105 0 87 3 105 15 105 12 0 15 -18 15 -105z m40 0
c0 -87 -3 -105 -15 -105 -12 0 -15 18 -15 105 0 87 3 105 15 105 12 0 15 -18
15 -105z m240 0 c0 -87 -3 -105 -15 -105 -12 0 -15 18 -15 105 0 87 3 105 15
105 12 0 15 -18 15 -105z m40 0 c0 -87 -3 -105 -15 -105 -12 0 -15 18 -15 105
0 87 3 105 15 105 12 0 15 -18 15 -105z m40 0 c0 -87 -3 -105 -15 -105 -12 0
-15 18 -15 105 0 87 3 105 15 105 12 0 15 -18 15 -105z m40 0 c0 -87 -3 -105
-15 -105 -12 0 -15 18 -15 105 0 87 3 105 15 105 12 0 15 -18 15 -105z m-1080
-200 c0 -87 -3 -105 -15 -105 -12 0 -15 18 -15 105 0 87 3 105 15 105 12 0 15
-18 15 -105z m40 0 c0 -87 -3 -105 -15 -105 -12 0 -15 18 -15 105 0 87 3 105
15 105 12 0 15 -18 15 -105z m40 0 c0 -87 -3 -105 -15 -105 -12 0 -15 18 -15
105 0 87 3 105 15 105 12 0 15 -18 15 -105z m680 0 c0 -87 -3 -105 -15 -105
-12 0 -15 18 -15 105 0 87 3 105 15 105 12 0 15 -18 15 -105z m40 0 c0 -87 -3
-105 -15 -105 -12 0 -15 18 -15 105 0 87 3 105 15 105 12 0 15 -18 15 -105z
m40 0 c0 -87 -3 -105 -15 -105 -12 0 -15 18 -15 105 0 87 3 105 15 105 12 0
15 -18 15 -105z m40 0 c0 -87 -3 -105 -15 -105 -12 0 -15 18 -15 105 0 87 3
105 15 105 12 0 15 -18 15 -105z m-760 -20 c0 -69 -3 -85 -15 -85 -12 0 -15
16 -15 85 0 69 3 85 15 85 12 0 15 -16 15 -85z m40 -260 c0 -158 -2 -185 -15
-185 -13 0 -15 27 -15 185 0 158 2 185 15 185 13 0 15 -27 15 -185z m40 0 c0
-158 -2 -185 -15 -185 -13 0 -15 27 -15 185 0 158 2 185 15 185 13 0 15 -27
15 -185z m40 0 c0 -158 -2 -185 -15 -185 -13 0 -15 27 -15 185 0 158 2 185 15
185 13 0 15 -27 15 -185z m40 0 c0 -158 -2 -185 -15 -185 -13 0 -15 27 -15
185 0 158 2 185 15 185 13 0 15 -27 15 -185z m40 0 c0 -158 -2 -185 -15 -185
-13 0 -15 27 -15 185 0 158 2 185 15 185 13 0 15 -27 15 -185z m240 0 c0 -158
-2 -185 -15 -185 -13 0 -15 27 -15 185 0 158 2 185 15 185 13 0 15 -27 15
-185z m40 0 c0 -158 -2 -185 -15 -185 -13 0 -15 27 -15 185 0 158 2 185 15
185 13 0 15 -27 15 -185z m40 0 c0 -158 -2 -185 -15 -185 -13 0 -15 27 -15
185 0 158 2 185 15 185 13 0 15 -27 15 -185z m40 0 c0 -158 -2 -185 -15 -185
-13 0 -15 27 -15 185 0 158 2 185 15 185 13 0 15 -27 15 -185z m40 0 c0 -158
-2 -185 -15 -185 -13 0 -15 27 -15 185 0 158 2 185 15 185 13 0 15 -27 15
-185z m-720 -280 c0 -87 -3 -105 -15 -105 -12 0 -15 18 -15 105 0 87 3 105 15
105 12 0 15 -18 15 -105z m40 0 c0 -87 -3 -105 -15 -105 -12 0 -15 18 -15 105
0 87 3 105 15 105 12 0 15 -18 15 -105z m40 0 c0 -87 -3 -105 -15 -105 -12 0
-15 18 -15 105 0 87 3 105 15 105 12 0 15 -18 15 -105z m40 20 c0 -69 -3 -85
-15 -85 -12 0 -15 16 -15 85 0 69 3 85 15 85 12 0 15 -16 15 -85z m640 -20 c0
-87 -3 -105 -15 -105 -12 0 -15 18 -15 105 0 87 3 105 15 105 12 0 15 -18 15
-105z m40 0 c0 -87 -3 -105 -15 -105 -12 0 -15 18 -15 105 0 87 3 105 15 105
12 0 15 -18 15 -105z m40 0 c0 -87 -3 -105 -15 -105 -12 0 -15 18 -15 105 0
87 3 105 15 105 12 0 15 -18 15 -105z m40 0 c0 -87 -3 -105 -15 -105 -12 0
-15 18 -15 105 0 87 3 105 15 105 12 0 15 -18 15 -105z m-1080 -200 c0 -87 -3
-105 -15 -105 -12 0 -15 18 -15 105 0 87 3 105 15 105 12 0 15 -18 15 -105z
m40 0 c0 -87 -3 -105 -15 -105 -12 0 -15 18 -15 105 0 87 3 105 15 105 12 0
15 -18 15 -105z m40 0 c0 -87 -3 -105 -15 -105 -12 0 -15 18 -15 105 0 87 3
105 15 105 12 0 15 -18 15 -105z m40 0 c0 -87 -3 -105 -15 -105 -12 0 -15 18
-15 105 0 87 3 105 15 105 12 0 15 -18 15 -105z m1040 0 c0 -87 -3 -105 -15
-105 -12 0 -15 18 -15 105 0 87 3 105 15 105 12 0 15 -18 15 -105z m40 0 c0
-87 -3 -105 -15 -105 -12 0 -15 18 -15 105 0 87 3 105 15 105 12 0 15 -18 15
-105z m40 0 c0 -87 -3 -105 -15 -105 -12 0 -15 18 -15 105 0 87 3 105 15 105
12 0 15 -18 15 -105z m40 0 c0 -87 -3 -105 -15 -105 -12 0 -15 18 -15 105 0
87 3 105 15 105 12 0 15 -18 15 -105z m-1480 -360 c0 -229 -2 -265 -15 -265
-13 0 -15 36 -15 265 0 229 2 265 15 265 13 0 15 -36 15 -265z m40 -120 c0
-336 -2 -385 -15 -385 -13 0 -15 49 -15 385 0 336 2 385 15 385 13 0 15 -49
15 -385z m40 0 c0 -336 -2 -385 -15 -385 -13 0 -15 49 -15 385 0 336 2 385 15
385 13 0 15 -49 15 -385z m40 0 c0 -336 -2 -385 -15 -385 -13 0 -15 49 -15
385 0 336 2 385 15 385 13 0 15 -49 15 -385z m40 360 c0 -16 -6 -25 -15 -25
-9 0 -15 9 -15 25 0 16 6 25 15 25 9 0 15 -9 15 -25z m600 -360 c0 -336 -2
-385 -15 -385 -13 0 -15 49 -15 385 0 336 2 385 15 385 13 0 15 -49 15 -385z
m40 0 c0 -336 -2 -385 -15 -385 -13 0 -15 49 -15 385 0 336 2 385 15 385 13 0
15 -49 15 -385z m40 0 c0 -336 -2 -385 -15 -385 -13 0 -15 49 -15 385 0 336 2
385 15 385 13 0 15 -49 15 -385z m40 0 c0 -336 -2 -385 -15 -385 -13 0 -15 49
-15 385 0 336 2 385 15 385 13 0 15 -49 15 -385z m40 300 c0 -69 -3 -85 -15
-85 -12 0 -15 16 -15 85 0 69 3 85 15 85 12 0 15 -16 15 -85z m600 -300 c0
-336 -2 -385 -15 -385 -13 0 -15 49 -15 385 0 336 2 385 15 385 13 0 15 -49
15 -385z m40 0 c0 -336 -2 -385 -15 -385 -13 0 -15 49 -15 385 0 336 2 385 15
385 13 0 15 -49 15 -385z m40 0 c0 -336 -2 -385 -15 -385 -13 0 -15 49 -15
385 0 336 2 385 15 385 13 0 15 -49 15 -385z m40 0 c0 -336 -2 -385 -15 -385
-13 0 -15 49 -15 385 0 336 2 385 15 385 13 0 15 -49 15 -385z m40 100 c0
-247 -2 -285 -15 -285 -13 0 -15 38 -15 285 0 247 2 285 15 285 13 0 15 -38
15 -285z m-1120 -200 c0 -247 -2 -285 -15 -285 -13 0 -15 38 -15 285 0 247 2
285 15 285 13 0 15 -38 15 -285z m40 0 c0 -247 -2 -285 -15 -285 -13 0 -15 38
-15 285 0 247 2 285 15 285 13 0 15 -38 15 -285z m40 0 c0 -247 -2 -285 -15
-285 -13 0 -15 38 -15 285 0 247 2 285 15 285 13 0 15 -38 15 -285z m40 0 c0
-247 -2 -285 -15 -285 -13 0 -15 38 -15 285 0 247 2 285 15 285 13 0 15 -38
15 -285z m40 0 c0 -247 -2 -285 -15 -285 -13 0 -15 38 -15 285 0 247 2 285 15
285 13 0 15 -38 15 -285z m200 0 c0 -247 -2 -285 -15 -285 -13 0 -15 38 -15
285 0 247 2 285 15 285 13 0 15 -38 15 -285z m40 0 c0 -247 -2 -285 -15 -285
-13 0 -15 38 -15 285 0 247 2 285 15 285 13 0 15 -38 15 -285z m40 0 c0 -247
-2 -285 -15 -285 -13 0 -15 38 -15 285 0 247 2 285 15 285 13 0 15 -38 15
-285z m40 0 c0 -247 -2 -285 -15 -285 -13 0 -15 38 -15 285 0 247 2 285 15
285 13 0 15 -38 15 -285z m40 0 c0 -247 -2 -285 -15 -285 -13 0 -15 38 -15
285 0 247 2 285 15 285 13 0 15 -38 15 -285z m40 0 c0 -247 -2 -285 -15 -285
-13 0 -15 38 -15 285 0 247 2 285 15 285 13 0 15 -38 15 -285z m-720 -100 c0
-158 -2 -185 -15 -185 -13 0 -15 27 -15 185 0 158 2 185 15 185 13 0 15 -27
15 -185z m40 0 c0 -158 -2 -185 -15 -185 -13 0 -15 27 -15 185 0 158 2 185 15
185 13 0 15 -27 15 -185z m40 0 c0 -158 -2 -185 -15 -185 -13 0 -15 27 -15
185 0 158 2 185 15 185 13 0 15 -27 15 -185z m40 0 c0 -158 -2 -185 -15 -185
-13 0 -15 27 -15 185 0 158 2 185 15 185 13 0 15 -27 15 -185z m640 0 c0 -158
-2 -185 -15 -185 -13 0 -15 27 -15 185 0 158 2 185 15 185 13 0 15 -27 15
-185z m40 0 c0 -158 -2 -185 -15 -185 -13 0 -15 27 -15 185 0 158 2 185 15
185 13 0 15 -27 15 -185z m40 0 c0 -158 -2 -185 -15 -185 -13 0 -15 27 -15
185 0 158 2 185 15 185 13 0 15 -27 15 -185z m40 0 c0 -158 -2 -185 -15 -185
-13 0 -15 27 -15 185 0 158 2 185 15 185 13 0 15 -27 15 -185z m-1480 -80 c0
-87 -3 -105 -15 -105 -12 0 -15 18 -15 105 0 87 3 105 15 105 12 0 15 -18 15
-105z m40 0 c0 -87 -3 -105 -15 -105 -12 0 -15 18 -15 105 0 87 3 105 15 105
12 0 15 -18 15 -105z m40 0 c0 -87 -3 -105 -15 -105 -12 0 -15 18 -15 105 0
87 3 105 15 105 12 0 15 -18 15 -105z m40 0 c0 -87 -3 -105 -15 -105 -12 0
-15 18 -15 105 0 87 3 105 15 105 12 0 15 -18 15 -105z m80 0 c0 -87 -3 -105
-15 -105 -12 0 -15 18 -15 105 0 87 3 105 15 105 12 0 15 -18 15 -105z m160 0
c0 -87 -3 -105 -15 -105 -12 0 -15 18 -15 105 0 87 3 105 15 105 12 0 15 -18
15 -105z m40 0 c0 -87 -3 -105 -15 -105 -12 0 -15 18 -15 105 0 87 3 105 15
105 12 0 15 -18 15 -105z m40 0 c0 -87 -3 -105 -15 -105 -12 0 -15 18 -15 105
0 87 3 105 15 105 12 0 15 -18 15 -105z m40 0 c0 -87 -3 -105 -15 -105 -12 0
-15 18 -15 105 0 87 3 105 15 105 12 0 15 -18 15 -105z m40 0 c0 -87 -3 -105
-15 -105 -12 0 -15 18 -15 105 0 87 3 105 15 105 12 0 15 -18 15 -105z m1000
0 c0 -87 -3 -105 -15 -105 -12 0 -15 18 -15 105 0 87 3 105 15 105 12 0 15
-18 15 -105z m80 0 c0 -87 -3 -105 -15 -105 -12 0 -15 18 -15 105 0 87 3 105
15 105 12 0 15 -18 15 -105z m40 0 c0 -87 -3 -105 -15 -105 -12 0 -15 18 -15
105 0 87 3 105 15 105 12 0 15 -18 15 -105z m40 0 c0 -87 -3 -105 -15 -105
-12 0 -15 18 -15 105 0 87 3 105 15 105 12 0 15 -18 15 -105z m240 0 c0 -87
-3 -105 -15 -105 -12 0 -15 18 -15 105 0 87 3 105 15 105 12 0 15 -18 15 -105z
m40 0 c0 -87 -3 -105 -15 -105 -12 0 -15 18 -15 105 0 87 3 105 15 105 12 0
15 -18 15 -105z m40 0 c0 -87 -3 -105 -15 -105 -12 0 -15 18 -15 105 0 87 3
105 15 105 12 0 15 -18 15 -105z m40 0 c0 -87 -3 -105 -15 -105 -12 0 -15 18
-15 105 0 87 3 105 15 105 12 0 15 -18 15 -105z m40 20 c0 -69 -3 -85 -15 -85
-12 0 -15 16 -15 85 0 69 3 85 15 85 12 0 15 -16 15 -85z m-1920 -40 c0 -69
-3 -85 -15 -85 -12 0 -15 16 -15 85 0 69 3 85 15 85 12 0 15 -16 15 -85z m400
0 c0 -69 -3 -85 -15 -85 -12 0 -15 16 -15 85 0 69 3 85 15 85 12 0 15 -16 15
-85z m1000 0 c0 -69 -3 -85 -15 -85 -12 0 -15 16 -15 85 0 69 3 85 15 85 12 0
15 -16 15 -85z m320 0 c0 -69 -3 -85 -15 -85 -12 0 -15 16 -15 85 0 69 3 85
15 85 12 0 15 -16 15 -85z"/>
</g>
</svg>
